HIERARCHY
ROOT Hips
{
	OFFSET	0.000000	0.000000	0.000000
	CHANNELS 6 Xposition Yposition Zposition Zrotation Xrotation Yrotation
	JOINT LeftHip
	{
		OFFSET	4.740440	-3.195970	-0.322709
		CHANNELS 3 Zrotation Xrotation Yrotation
		JOINT LeftKnee
		{
			OFFSET	-1.605680	-15.592300	1.005510
			CHANNELS 3 Zrotation Xrotation Yrotation
			JOINT LeftAnkle
			{
				OFFSET	-0.632401	-16.421000	-1.413730
				CHANNELS 3 Zrotation Xrotation Yrotation
				End Site
				{
					OFFSET	0.008423	-2.933000	-1.776750
				}
			}
		}
	}
	JOINT RightHip
	{
		OFFSET	-4.740440	-3.195970	-0.322709
		CHANNELS 3 Zrotation Xrotation Yrotation
		JOINT RightKnee
		{
			OFFSET	1.605680	-15.592300	1.005510
			CHANNELS 3 Zrotation Xrotation Yrotation
			JOINT RightAnkle
			{
				OFFSET	0.632401	-16.421000	-1.413730
				CHANNELS 3 Zrotation Xrotation Yrotation
				End Site
				{
					OFFSET	-0.008423	-2.933000	-1.776750
				}
			}
		}
	}
	JOINT Chest
	{
		OFFSET	0.000000	3.468200	0.078401
		CHANNELS 3 Zrotation Xrotation Yrotation
		JOINT LeftCollar
		{
			OFFSET	3.857650	15.070700	-0.011583
			CHANNELS 3 Zrotation Xrotation Yrotation
			JOINT LeftShoulder
			{
				OFFSET	3.979720	-1.940530	-0.165223
				CHANNELS 3 Zrotation Xrotation Yrotation
				JOINT LeftElbow
				{
					OFFSET	0.615844	-10.986600	-0.673886
					CHANNELS 3 Zrotation Xrotation Yrotation
					JOINT LeftWrist
					{
						OFFSET	0.826843	-10.854500	1.034220
						CHANNELS 3 Zrotation Xrotation Yrotation
						End Site
						{
							OFFSET	-1.679080	-8.456540	0.936217
						}
					}
				}
			}
		}
		JOINT RightCollar
		{
			OFFSET	-3.857650	15.070700	-0.011583
			CHANNELS 3 Zrotation Xrotation Yrotation
			JOINT RightShoulder
			{
				OFFSET	-3.979720	-1.940530	-0.165223
				CHANNELS 3 Zrotation Xrotation Yrotation
				JOINT RightElbow
				{
					OFFSET	-0.615845	-10.986600	-0.673886
					CHANNELS 3 Zrotation Xrotation Yrotation
					JOINT RightWrist
					{
						OFFSET	-0.826843	-10.854500	1.034220
						CHANNELS 3 Zrotation Xrotation Yrotation
						End Site
						{
							OFFSET	1.679080	-8.456540	0.936217
						}
					}
				}
			}
		}
		JOINT Neck
		{
			OFFSET	0.000000	15.101400	0.055730
			CHANNELS 3 Zrotation Xrotation Yrotation
			JOINT Head
			{
				OFFSET	0.000000	4.185120	1.488260
				CHANNELS 3 Zrotation Xrotation Yrotation
				End Site
				{
					OFFSET	0.000000	7.773420	-0.106016
				}
			}
		}
	}
}
MOTION
Frames:     6
Frame Time: 0.016667
-4.311319	35.733879	3.545010	16.535015	-12.078732	23.598717	5.256632	13.254212	0.275274	-20.709490	29.869804	30.342112	0.874558	-25.512772	5.765722	-28.835321	-3.117604	-0.582444	2.544653	39.144005	9.810198	9.109594	-22.803064	4.087492	11.216311	-8.713723	-20.436323	18.195036	1.125293	12.023879	-8.082037	19.645855	1.013080	9.923886	-13.672000	15.529724	17.934647	-0.269533	-0.706948	9.530199	-8.870398	-12.084666	-51.583195	4.928165	-30.670774	-69.038734	-55.965191	-54.998608	-27.498438	-7.991572	-8.172620	23.900412	6.112011	8.180548	-5.049170	8.656517	-18.762486	
-4.823731	35.646858	3.312992	16.694122	-13.932912	21.853157	6.176182	14.227672	0.879962	-21.573381	30.277321	31.289158	1.044009	-25.196018	5.998716	-27.266117	-3.616294	-1.209490	0.277702	40.352772	12.823061	8.363729	-22.618816	4.272020	12.770760	-4.602033	-20.679937	15.829223	1.137722	11.794767	-8.096834	18.477118	-0.445864	5.696715	-11.162043	14.194979	13.971226	-0.107030	-2.123030	11.488941	-7.826437	-10.571811	-44.565308	5.317375	-31.294338	-64.367928	-49.398880	-52.050797	-28.419464	-10.549970	-9.530189	21.980310	9.430977	9.970148	-6.342672	9.733465	-17.213753	
-5.047136	35.622112	3.210897	16.820398	-14.381995	21.345991	6.303822	14.428473	0.942644	-21.768070	30.333065	31.750223	0.904198	-25.079578	5.931479	-26.824860	-3.987090	-1.254677	-0.282981	40.831940	13.460856	8.145798	-22.559265	4.319788	13.059423	-3.413516	-20.655876	15.112458	1.256198	11.413491	-8.192751	18.115122	-1.498092	4.602934	-10.804838	13.887149	12.451583	-0.126605	-2.488303	11.942890	-7.181023	-10.131475	-42.006256	5.256627	-31.400808	-63.006664	-47.063644	-51.556427	-28.780495	-11.350687	-9.529591	21.415358	9.805956	10.692950	-6.813890	10.538152	-16.862806	
-5.725133	35.646584	2.967818	17.740416	-15.046867	20.672703	6.068021	14.678461	0.204657	-22.536926	30.082830	33.162354	0.644981	-24.572878	5.871847	-26.370188	-4.709182	-1.337050	-1.107940	41.700916	14.627723	7.354481	-22.341944	3.990051	12.914427	0.005555	-21.313866	13.221592	1.396808	10.153872	-7.925550	16.860409	-4.705334	2.143053	-11.204906	12.752997	7.629848	-0.434288	-3.436808	12.723354	-5.092357	-8.725690	-33.755428	4.463827	-31.267435	-58.701462	-40.407410	-50.864769	-29.689362	-12.664087	-9.985142	19.053667	10.854969	13.919885	-7.845126	11.618615	-16.386290	
-5.945379	35.664505	2.878133	18.100559	-15.319321	20.441374	5.943165	14.817860	-0.014823	-22.769215	29.998720	33.448013	0.597423	-24.386362	5.983157	-26.236357	-4.844398	-1.351042	-1.452759	41.871174	15.104082	7.074040	-22.234591	3.825041	12.990599	2.381685	-22.033484	12.785300	0.405731	10.407800	-7.665096	16.550682	-5.463001	1.620816	-11.935912	12.278195	6.304994	-0.663394	-3.874862	12.947771	-5.158732	-7.610094	-28.729418	4.557822	-30.526268	-54.659348	-36.660683	-50.196312	-30.735729	-12.895278	-10.737038	16.818560	12.025714	16.088413	-7.267376	9.517731	-16.398602	
-6.524964	35.683849	2.478740	18.755135	-16.078686	19.268002	5.831160	14.910769	0.035330	-23.432755	29.818840	33.864243	0.595076	-23.669918	6.061173	-25.663857	-5.820973	-1.539397	-2.799915	42.275616	16.489277	6.937980	-21.619558	4.051269	12.766488	5.800080	-21.976133	10.947954	0.760465	8.991179	-6.454573	15.650156	-6.557058	0.496687	-15.534087	10.094173	2.559750	-1.808291	-5.777401	12.549661	-2.173612	-7.344651	-23.377218	1.072373	-29.991703	-49.697254	-33.150711	-49.072250	-32.130798	-12.744823	-11.377913	13.915635	13.818857	18.025669	-8.225977	7.251131	-14.639860	
